<svg width="1280" height="720" xmlns="http://www.w3.org/2000/svg" xmlns:xlink="http://www.w3.org/1999/xlink" overflow="hidden"><defs><filter id="fx0" x="-10%" y="-10%" width="120%" height="120%" filterUnits="userSpaceOnUse" primitiveUnits="userSpaceOnUse"><feComponentTransfer color-interpolation-filters="sRGB"><feFuncR type="discrete" tableValues="0 0"/><feFuncG type="discrete" tableValues="0 0"/><feFuncB type="discrete" tableValues="0 0"/><feFuncA type="linear" slope="0.4" intercept="0"/></feComponentTransfer><feGaussianBlur stdDeviation="2.22222 2.22222"/></filter><clipPath id="clip1"><rect x="0" y="0" width="1280" height="720"/></clipPath><clipPath id="clip2"><rect x="-10" y="-4" width="1314" height="73"/></clipPath><clipPath id="clip3"><rect x="0" y="0" width="1294" height="67"/></clipPath></defs><g clip-path="url(#clip1)"><rect x="0" y="0" width="1280" height="720" fill="#FFFFFF"/><g clip-path="url(#clip2)" filter="url(#fx0)" transform="translate(-7 -7)"><g clip-path="url(#clip3)"><rect x="-5.8" y="6.49" width="1305.6" height="52.02" fill="#F592A6"/></g></g><rect x="0" y="0" width="1280" height="51" fill="#F592A6"/><path d="M34 123.66C34 106.175 48.1746 92 65.6599 92L1214.34 92C1231.83 92 1246 106.175 1246 123.66L1246 654.34C1246 671.825 1231.83 686 1214.34 686L65.6599 686C48.1746 686 34 671.825 34 654.34Z" fill="#FFF3E5" fill-rule="evenodd" fill-opacity="0.760784"/></g></svg>